<svg xmlns="http://www.w3.org/2000/svg" viewBox="0 0 800 500" width="800" height="500" role="img" preserveAspectRatio="xMidYMid slice"><defs><linearGradient id="bg" x1="0" y1="0" x2="1" y2="1"><stop offset="0" stop-color="#fbf3e6"/><stop offset="1" stop-color="#f3e1c6"/></linearGradient><radialGradient id="ga"><stop offset="0" stop-color="#e0a15a" stop-opacity="0.45"/><stop offset="1" stop-color="#e0a15a" stop-opacity="0"/></radialGradient><radialGradient id="gb"><stop offset="0" stop-color="#c2561a" stop-opacity="0.22"/><stop offset="1" stop-color="#c2561a" stop-opacity="0"/></radialGradient></defs><rect x="0" y="0" width="800" height="500" rx="0" fill="url(#bg)" opacity="1" /><circle cx="120" cy="80" r="250" fill="url(#ga)" opacity="1"/><circle cx="700" cy="440" r="280" fill="url(#gb)" opacity="1"/><rect x="0" y="380" width="800" height="120" rx="0" fill="#5b3422" opacity="1" /><rect x="0" y="372" width="800" height="14" rx="0" fill="#3e2417" opacity="1" /><rect x="210" y="190" width="380" height="190" rx="18" fill="#3e2417" stroke="#7a4a30" stroke-width="3" opacity="1" /><rect x="226" y="206" width="348" height="158" rx="10" fill="#fffaf2" opacity="1" /><rect x="246" y="226" width="150" height="14" rx="7" fill="#3e2417" opacity="1" /><rect x="246" y="250" width="110" height="14" rx="7" fill="#c2561a" opacity="1" /><rect x="246" y="282" width="170" height="8" rx="4" fill="#cdb7a2" opacity="1" /><rect x="246" y="298" width="130" height="8" rx="4" fill="#cdb7a2" opacity="1" /><rect x="246" y="328" width="80" height="22" rx="11" fill="#c2561a" opacity="1" /><rect x="430" y="226" width="124" height="124" rx="12" fill="#e0a15a" opacity="1" /><circle cx="492" cy="288" r="30" fill="#fbf3e6" opacity="0.95"/><path d="M170 380 L630 380 L610 398 L190 398Z" fill="#7a4a30" opacity="1" /><rect x="640" y="318" width="62" height="62" rx="10" fill="#fbf3e6" stroke="#e0cbb0" stroke-width="2" opacity="1" /><path d="M702 332 C728 332 728 366 702 366" fill="none" stroke="#fbf3e6" stroke-width="7" stroke-linecap="round" stroke-linejoin="round" opacity="1" /><path d="M660 300 C650 286 672 280 662 262" fill="none" stroke="#e0a15a" stroke-width="5" stroke-linecap="round" stroke-linejoin="round" opacity="0.8" /><path d="M680 300 C670 286 692 280 682 262" fill="none" stroke="#e0a15a" stroke-width="5" stroke-linecap="round" stroke-linejoin="round" opacity="0.8" /><rect x="90" y="330" width="56" height="50" rx="8" fill="#c2561a" opacity="1" /><path d="M118 330 C80 300 70 250 100 214 C112 250 118 290 118 330Z" fill="#6d7f3a" opacity="1" /><path d="M118 330 C150 300 164 262 140 226 C124 262 120 292 118 330Z" fill="#8a9c4a" opacity="1" /><path d="M118 330 C118 280 128 240 118 190 C106 240 112 290 118 330Z" fill="#5c6d2f" opacity="1" /><circle cx="660" cy="120" r="40" fill="#e0a15a" opacity="0.9"/><circle cx="660" cy="120" r="62" fill="#e0a15a" opacity="0.2"/></svg>