<svg xmlns="http://www.w3.org/2000/svg" viewBox="0 0 800 500" width="800" height="500" role="img" preserveAspectRatio="xMidYMid slice"><defs><linearGradient id="bg" x1="0" y1="0" x2="1" y2="1"><stop offset="0" stop-color="#fbf3e6"/><stop offset="1" stop-color="#f3e1c6"/></linearGradient><radialGradient id="ga"><stop offset="0" stop-color="#e0a15a" stop-opacity="0.45"/><stop offset="1" stop-color="#e0a15a" stop-opacity="0"/></radialGradient><radialGradient id="gb"><stop offset="0" stop-color="#c2561a" stop-opacity="0.22"/><stop offset="1" stop-color="#c2561a" stop-opacity="0"/></radialGradient><linearGradient id="pl" x1="0" y1="0" x2="1" y2="1"><stop offset="0" stop-color="#ffffff"/><stop offset="1" stop-color="#f1e2c9"/></linearGradient></defs><rect x="0" y="0" width="800" height="500" rx="0" fill="url(#bg)" opacity="1" /><circle cx="120" cy="80" r="250" fill="url(#ga)" opacity="1"/><circle cx="700" cy="440" r="280" fill="url(#gb)" opacity="1"/><rect x="0" y="380" width="800" height="120" rx="0" fill="#5b3422" opacity="0.95" /><rect x="0" y="372" width="800" height="12" rx="0" fill="#3e2417" opacity="1" /><ellipse cx="400" cy="330" rx="230" ry="50" fill="#000" opacity=".18"/><ellipse cx="400" cy="300" rx="210" ry="66" fill="url(#pl)" stroke="#e0cbb0" stroke-width="3"/><ellipse cx="400" cy="296" rx="150" ry="44" fill="none" stroke="#e8d3b5" stroke-width="3"/><ellipse cx="400" cy="290" rx="90" ry="26" fill="#d9691f"/><circle cx="360" cy="276" r="22" fill="#7a8f3a" opacity="1"/><circle cx="405" cy="268" r="26" fill="#e0a15a" opacity="1"/><circle cx="445" cy="282" r="20" fill="#7a8f3a" opacity="1"/><circle cx="415" cy="292" r="12" fill="#a33b12" opacity="1"/><path d="M350 220 C330 190 370 170 350 135" fill="none" stroke="#c2561a" stroke-width="6" stroke-linecap="round" stroke-linejoin="round" opacity="0.55" /><path d="M400 220 C380 190 420 170 400 135" fill="none" stroke="#c2561a" stroke-width="6" stroke-linecap="round" stroke-linejoin="round" opacity="0.55" /><path d="M450 220 C430 190 470 170 450 135" fill="none" stroke="#c2561a" stroke-width="6" stroke-linecap="round" stroke-linejoin="round" opacity="0.55" /><rect x="135" y="215" width="14" height="160" rx="7" fill="#3e2417" opacity="1" /><rect x="122" y="215" width="40" height="70" rx="12" fill="#3e2417" opacity="1" /><rect x="650" y="215" width="14" height="160" rx="7" fill="#3e2417" opacity="1" /><path d="M664 215 L664 300 C690 290 695 240 664 215Z" fill="#3e2417" opacity="1" /><path d="M600 150 L650 150 L640 240 L610 240Z" fill="#fff" stroke="#e0cbb0" stroke-width="2" stroke-linecap="round" stroke-linejoin="round" opacity="0.8" /><rect x="618" y="240" width="14" height="34" rx="4" fill="#e0cbb0" opacity="1" /></svg>