<svg xmlns="http://www.w3.org/2000/svg" viewBox="0 0 800 500" width="800" height="500" role="img" preserveAspectRatio="xMidYMid slice"><defs><linearGradient id="bg" x1="0" y1="0" x2="1" y2="1"><stop offset="0" stop-color="#5b3422"/><stop offset="1" stop-color="#3e2417"/></linearGradient><radialGradient id="ga"><stop offset="0" stop-color="#d9691f" stop-opacity="0.5"/><stop offset="1" stop-color="#d9691f" stop-opacity="0"/></radialGradient><radialGradient id="gb"><stop offset="0" stop-color="#e0a15a" stop-opacity="0.25"/><stop offset="1" stop-color="#e0a15a" stop-opacity="0"/></radialGradient></defs><rect x="0" y="0" width="800" height="500" rx="0" fill="url(#bg)" opacity="1" /><circle cx="120" cy="80" r="250" fill="url(#ga)" opacity="1"/><circle cx="700" cy="440" r="280" fill="url(#gb)" opacity="1"/><circle cx="400" cy="260" r="190" fill="none" stroke="#e0a15a" stroke-width="2" opacity="0.35"/><circle cx="400" cy="260" r="140" fill="none" stroke="#d9691f" stroke-width="2" opacity="0.4"/><rect x="150" y="100" width="500" height="310" rx="26" fill="#fbf3e6" opacity="0.97" /><rect x="190" y="310" width="50" height="60" rx="12" fill="#e0a15a" opacity="1" /><rect x="264" y="285" width="50" height="85" rx="12" fill="#e0a15a" opacity="1" /><rect x="338" y="290" width="50" height="80" rx="12" fill="#d9691f" opacity="1" /><rect x="412" y="250" width="50" height="120" rx="12" fill="#d9691f" opacity="1" /><rect x="486" y="220" width="50" height="150" rx="12" fill="#c2561a" opacity="1" /><rect x="560" y="180" width="50" height="190" rx="12" fill="#3e2417" opacity="1" /><path d="M205 300 L280 270 L350 280 L430 220 L510 200 L600 140" fill="none" stroke="#3e2417" stroke-width="6" stroke-linecap="round" stroke-linejoin="round" opacity="1" /><path d="M565 135 L600 140 L588 172" fill="none" stroke="#3e2417" stroke-width="6" stroke-linecap="round" stroke-linejoin="round" opacity="1" /><circle cx="600" cy="140" r="9" fill="#c2561a" stroke="#fff" stroke-width="3" opacity="1"/><rect x="190" y="125" width="130" height="14" rx="7" fill="#3e2417" opacity="1" /><rect x="190" y="150" width="90" height="10" rx="5" fill="#b79b83" opacity="1" /><circle cx="660" cy="120" r="34" fill="#e0a15a" stroke="#fff" stroke-width="5" opacity="1"/><path d="M648 120 h24 M660 108 v24" fill="none" stroke="#fff" stroke-width="6" stroke-linecap="round" stroke-linejoin="round" opacity="1" /></svg>