<svg xmlns="http://www.w3.org/2000/svg" viewBox="0 0 800 500" width="800" height="500" role="img" preserveAspectRatio="xMidYMid slice"><defs><linearGradient id="bg" x1="0" y1="0" x2="1" y2="1"><stop offset="0" stop-color="#fbf3e6"/><stop offset="1" stop-color="#f3e1c6"/></linearGradient><linearGradient id="btn" x1="0" y1="0" x2="1" y2="1"><stop offset="0" stop-color="#d9691f"/><stop offset="1" stop-color="#b84a12"/></linearGradient><linearGradient id="ch" x1="0" y1="0" x2="1" y2="1"><stop offset="0" stop-color="#5b3422"/><stop offset="1" stop-color="#3e2417"/></linearGradient></defs><rect x="0" y="0" width="800" height="500" rx="0" fill="url(#bg)" opacity="1" /><rect x="0" y="0" width="800" height="54" rx="0" fill="#ffffff" opacity="0.7" /><circle cx="46" cy="27" r="14" fill="#c2561a" opacity="1"/><rect x="70" y="21" width="70" height="12" rx="6" fill="#3e2417" opacity="1" /><rect x="470" y="22" width="50" height="10" rx="5" fill="#8a6a55" opacity="0.7" /><rect x="540" y="22" width="50" height="10" rx="5" fill="#8a6a55" opacity="0.7" /><rect x="610" y="22" width="50" height="10" rx="5" fill="#8a6a55" opacity="0.7" /><rect x="680" y="22" width="50" height="10" rx="5" fill="#8a6a55" opacity="0.7" /><rect x="660" y="14" width="100" height="26" rx="13" fill="url(#btn)" opacity="1" /><rect x="60" y="110" width="150" height="12" rx="6" fill="#c2561a" opacity="0.75" /><rect x="60" y="145" width="380" height="30" rx="8" fill="#3e2417" opacity="1" /><rect x="60" y="188" width="300" height="30" rx="8" fill="#3e2417" opacity="1" /><rect x="60" y="231" width="250" height="30" rx="8" fill="#c2561a" opacity="1" /><rect x="60" y="285" width="330" height="10" rx="5" fill="#8a6a55" opacity="0.6" /><rect x="60" y="305" width="290" height="10" rx="5" fill="#8a6a55" opacity="0.4" /><rect x="60" y="345" width="150" height="44" rx="22" fill="url(#btn)" opacity="1" /><rect x="226" y="345" width="140" height="44" rx="22" fill="#ffffff" stroke="#c2561a" stroke-width="2" opacity="1" /><rect x="500" y="105" width="240" height="290" rx="26" fill="url(#ch)" opacity="1" /><rect x="520" y="128" width="200" height="120" rx="16" fill="#c2561a" opacity="0.95" /><rect x="520" y="262" width="94" height="110" rx="14" fill="#fbf3e6" opacity="0.95" /><rect x="626" y="262" width="94" height="110" rx="14" fill="#e0a15a" opacity="0.95" /><circle cx="620" cy="188" r="28" fill="#fbf3e6" opacity="0.9"/></svg>