<svg xmlns="http://www.w3.org/2000/svg" viewBox="0 0 800 500" width="800" height="500" role="img" preserveAspectRatio="xMidYMid slice"><defs><linearGradient id="bg" x1="0" y1="0" x2="1" y2="1"><stop offset="0" stop-color="#0f1630"/><stop offset="1" stop-color="#1b1348"/></linearGradient><radialGradient id="ga"><stop offset="0" stop-color="#ec4899" stop-opacity="0.55"/><stop offset="1" stop-color="#ec4899" stop-opacity="0"/></radialGradient><radialGradient id="gb"><stop offset="0" stop-color="#22d3ee" stop-opacity="0.5"/><stop offset="1" stop-color="#22d3ee" stop-opacity="0"/></radialGradient></defs><rect x="0" y="0" width="800" height="500" rx="0" fill="url(#bg)" opacity="1" /><circle cx="130" cy="90" r="260" fill="url(#ga)" opacity="1"/><circle cx="700" cy="430" r="280" fill="url(#gb)" opacity="1"/><circle cx="60" cy="50" r="1.6" fill="#ffffff" opacity="0.1"/><circle cx="60" cy="150" r="1.6" fill="#ffffff" opacity="0.1"/><circle cx="60" cy="250" r="1.6" fill="#ffffff" opacity="0.1"/><circle cx="60" cy="350" r="1.6" fill="#ffffff" opacity="0.1"/><circle cx="60" cy="450" r="1.6" fill="#ffffff" opacity="0.1"/><circle cx="145" cy="50" r="1.6" fill="#ffffff" opacity="0.1"/><circle cx="145" cy="150" r="1.6" fill="#ffffff" opacity="0.1"/><circle cx="145" cy="250" r="1.6" fill="#ffffff" opacity="0.1"/><circle cx="145" cy="350" r="1.6" fill="#ffffff" opacity="0.1"/><circle cx="145" cy="450" r="1.6" fill="#ffffff" opacity="0.1"/><circle cx="230" cy="50" r="1.6" fill="#ffffff" opacity="0.1"/><circle cx="230" cy="150" r="1.6" fill="#ffffff" opacity="0.1"/><circle cx="230" cy="250" r="1.6" fill="#ffffff" opacity="0.1"/><circle cx="230" cy="350" r="1.6" fill="#ffffff" opacity="0.1"/><circle cx="230" cy="450" r="1.6" fill="#ffffff" opacity="0.1"/><circle cx="315" cy="50" r="1.6" fill="#ffffff" opacity="0.1"/><circle cx="315" cy="150" r="1.6" fill="#ffffff" opacity="0.1"/><circle cx="315" cy="250" r="1.6" fill="#ffffff" opacity="0.1"/><circle cx="315" cy="350" r="1.6" fill="#ffffff" opacity="0.1"/><circle cx="315" cy="450" r="1.6" fill="#ffffff" opacity="0.1"/><circle cx="400" cy="50" r="1.6" fill="#ffffff" opacity="0.1"/><circle cx="400" cy="150" r="1.6" fill="#ffffff" opacity="0.1"/><circle cx="400" cy="250" r="1.6" fill="#ffffff" opacity="0.1"/><circle cx="400" cy="350" r="1.6" fill="#ffffff" opacity="0.1"/><circle cx="400" cy="450" r="1.6" fill="#ffffff" opacity="0.1"/><circle cx="485" cy="50" r="1.6" fill="#ffffff" opacity="0.1"/><circle cx="485" cy="150" r="1.6" fill="#ffffff" opacity="0.1"/><circle cx="485" cy="250" r="1.6" fill="#ffffff" opacity="0.1"/><circle cx="485" cy="350" r="1.6" fill="#ffffff" opacity="0.1"/><circle cx="485" cy="450" r="1.6" fill="#ffffff" opacity="0.1"/><circle cx="570" cy="50" r="1.6" fill="#ffffff" opacity="0.1"/><circle cx="570" cy="150" r="1.6" fill="#ffffff" opacity="0.1"/><circle cx="570" cy="250" r="1.6" fill="#ffffff" opacity="0.1"/><circle cx="570" cy="350" r="1.6" fill="#ffffff" opacity="0.1"/><circle cx="570" cy="450" r="1.6" fill="#ffffff" opacity="0.1"/><circle cx="655" cy="50" r="1.6" fill="#ffffff" opacity="0.1"/><circle cx="655" cy="150" r="1.6" fill="#ffffff" opacity="0.1"/><circle cx="655" cy="250" r="1.6" fill="#ffffff" opacity="0.1"/><circle cx="655" cy="350" r="1.6" fill="#ffffff" opacity="0.1"/><circle cx="655" cy="450" r="1.6" fill="#ffffff" opacity="0.1"/><circle cx="740" cy="50" r="1.6" fill="#ffffff" opacity="0.1"/><circle cx="740" cy="150" r="1.6" fill="#ffffff" opacity="0.1"/><circle cx="740" cy="250" r="1.6" fill="#ffffff" opacity="0.1"/><circle cx="740" cy="350" r="1.6" fill="#ffffff" opacity="0.1"/><circle cx="740" cy="450" r="1.6" fill="#ffffff" opacity="0.1"/><rect x="110" y="70" width="280" height="170" rx="20" fill="#0d1430" stroke="#8b5cf6" stroke-width="2.5" opacity="1" /><rect x="112" y="72" width="276" height="166" rx="18" fill="#8b5cf6" opacity="0.18" /><circle cx="250" cy="140" r="30" fill="#8b5cf6" opacity="0.95"/><path d="M194 230 C200 182 300 182 306 230Z" fill="#8b5cf6" opacity="0.95" /><rect x="124" y="84" width="8" height="8" rx="4" fill="#10b981" opacity="1" /><rect x="410" y="70" width="280" height="170" rx="20" fill="#0d1430" stroke="#22d3ee" stroke-width="2.5" opacity="1" /><rect x="412" y="72" width="276" height="166" rx="18" fill="#22d3ee" opacity="0.18" /><circle cx="550" cy="140" r="30" fill="#22d3ee" opacity="0.95"/><path d="M494 230 C500 182 600 182 606 230Z" fill="#22d3ee" opacity="0.95" /><rect x="424" y="84" width="8" height="8" rx="4" fill="#10b981" opacity="1" /><rect x="110" y="255" width="280" height="170" rx="20" fill="#0d1430" stroke="#ec4899" stroke-width="2.5" opacity="1" /><rect x="112" y="257" width="276" height="166" rx="18" fill="#ec4899" opacity="0.18" /><circle cx="250" cy="325" r="30" fill="#ec4899" opacity="0.95"/><path d="M194 415 C200 367 300 367 306 415Z" fill="#ec4899" opacity="0.95" /><rect x="124" y="269" width="8" height="8" rx="4" fill="#10b981" opacity="1" /><rect x="410" y="255" width="280" height="170" rx="20" fill="#0d1430" stroke="#f59e0b" stroke-width="2.5" opacity="1" /><rect x="412" y="257" width="276" height="166" rx="18" fill="#f59e0b" opacity="0.18" /><circle cx="550" cy="325" r="30" fill="#f59e0b" opacity="0.95"/><path d="M494 415 C500 367 600 367 606 415Z" fill="#f59e0b" opacity="0.95" /><rect x="424" y="269" width="8" height="8" rx="4" fill="#10b981" opacity="1" /><rect x="280" y="445" width="240" height="44" rx="22" fill="#0d1430" stroke="#4a5bb0" stroke-width="1.5" opacity="1" /><circle cx="322" cy="467" r="14" fill="#10b981" opacity="0.9"/><circle cx="374" cy="467" r="14" fill="#94a3b8" opacity="0.9"/><circle cx="426" cy="467" r="14" fill="#94a3b8" opacity="0.9"/><circle cx="478" cy="467" r="14" fill="#ec4899" opacity="0.9"/></svg>